<svg width="320" height="160" viewBox="0 0 320 160" fill="none" xmlns="http://www.w3.org/2000/svg">
<rect width="320" height="160" fill="#F1F1F1"/>
<path d="M73.583 118.965H74.5293C75.4137 118.965 76.0755 118.792 76.5146 118.445C76.9538 118.093 77.1733 117.583 77.1733 116.915C77.1733 116.24 76.9878 115.743 76.6167 115.421C76.2518 115.099 75.6766 114.938 74.8911 114.938H73.583V118.965ZM80.0772 116.812C80.0772 118.272 79.6195 119.389 78.7041 120.162C77.7949 120.935 76.4992 121.321 74.8169 121.321H73.583V126.146H70.707V112.582H75.0396C76.6847 112.582 77.9341 112.938 78.7876 113.649C79.6473 114.354 80.0772 115.409 80.0772 116.812ZM89.002 126.146L88.4546 124.735H88.3804C87.9041 125.335 87.4124 125.753 86.9053 125.988C86.4043 126.217 85.7487 126.331 84.9385 126.331C83.9427 126.331 83.1572 126.047 82.582 125.478C82.013 124.909 81.7285 124.098 81.7285 123.047C81.7285 121.946 82.112 121.136 82.8789 120.616C83.652 120.09 84.8148 119.8 86.3672 119.744L88.167 119.688V119.234C88.167 118.182 87.6289 117.657 86.5527 117.657C85.724 117.657 84.7498 117.907 83.6304 118.408L82.6934 116.497C83.887 115.872 85.2106 115.56 86.6641 115.56C88.0557 115.56 89.1226 115.863 89.8648 116.469C90.6069 117.075 90.978 117.997 90.978 119.234V126.146H89.002ZM88.167 121.34L87.0723 121.377C86.2497 121.402 85.6374 121.55 85.2354 121.822C84.8333 122.094 84.6323 122.509 84.6323 123.065C84.6323 123.863 85.09 124.262 86.0054 124.262C86.661 124.262 87.1836 124.074 87.5732 123.696C87.9691 123.319 88.167 122.818 88.167 122.193V121.34ZM96.4795 119.763C97.5495 119.763 98.3071 119.676 98.7524 119.503C99.2039 119.33 99.4297 119.055 99.4297 118.677C99.4297 118.343 99.2658 118.093 98.938 117.926C98.6102 117.759 98.069 117.675 97.3145 117.675C96.8382 117.675 96.297 117.734 95.6909 117.852C95.091 117.969 94.5436 118.13 94.0488 118.334L93.2139 116.358C93.9499 116.08 94.6642 115.882 95.3569 115.764C96.0496 115.64 96.8228 115.579 97.6763 115.579C98.9689 115.579 100.005 115.826 100.784 116.321C101.563 116.816 101.953 117.487 101.953 118.334C101.953 119.503 101.264 120.264 99.8843 120.616V120.709C100.732 120.919 101.335 121.219 101.693 121.609C102.058 121.992 102.241 122.496 102.241 123.121C102.241 123.752 102.037 124.312 101.628 124.8C101.22 125.289 100.63 125.666 99.8565 125.932C99.0833 126.198 98.1742 126.331 97.1289 126.331C95.3971 126.331 94.0674 126.118 93.1397 125.691V123.353C93.6716 123.6 94.2529 123.795 94.8838 123.937C95.5208 124.08 96.1362 124.151 96.73 124.151C97.6515 124.151 98.3412 124.049 98.7988 123.845C99.2565 123.634 99.4854 123.338 99.4854 122.954C99.4854 122.534 99.2441 122.224 98.7617 122.026C98.2793 121.822 97.5371 121.72 96.5352 121.72H95.4404V119.763H96.4795ZM110.154 126.331C108.936 126.331 107.98 125.889 107.288 125.004H107.139C107.238 125.87 107.288 126.371 107.288 126.507V130.71H104.458V115.773H106.759L107.158 117.119H107.288C107.949 116.092 108.93 115.579 110.229 115.579C111.453 115.579 112.412 116.052 113.105 116.998C113.797 117.944 114.144 119.259 114.144 120.941C114.144 122.048 113.98 123.01 113.652 123.826C113.33 124.643 112.869 125.264 112.27 125.691C111.67 126.118 110.965 126.331 110.154 126.331ZM109.319 117.842C108.62 117.842 108.11 118.059 107.789 118.492C107.467 118.918 107.3 119.627 107.288 120.616V120.922C107.288 122.036 107.452 122.833 107.779 123.316C108.113 123.798 108.639 124.04 109.356 124.04C110.624 124.04 111.258 122.994 111.258 120.904C111.258 119.883 111.101 119.119 110.785 118.612C110.476 118.099 109.987 117.842 109.319 117.842ZM123.068 126.146L122.521 124.735H122.447C121.971 125.335 121.479 125.753 120.972 125.988C120.471 126.217 119.815 126.331 119.005 126.331C118.009 126.331 117.224 126.047 116.648 125.478C116.079 124.909 115.795 124.098 115.795 123.047C115.795 121.946 116.178 121.136 116.945 120.616C117.718 120.09 118.881 119.8 120.434 119.744L122.233 119.688V119.234C122.233 118.182 121.695 117.657 120.619 117.657C119.79 117.657 118.816 117.907 117.697 118.408L116.76 116.497C117.953 115.872 119.277 115.56 120.73 115.56C122.122 115.56 123.189 115.863 123.931 116.469C124.673 117.075 125.044 117.997 125.044 119.234V126.146H123.068ZM122.233 121.34L121.139 121.377C120.316 121.402 119.704 121.55 119.302 121.822C118.9 122.094 118.699 122.509 118.699 123.065C118.699 123.863 119.156 124.262 120.072 124.262C120.727 124.262 121.25 124.074 121.64 123.696C122.035 123.319 122.233 122.818 122.233 122.193V121.34ZM127.336 119.93C127.336 117.549 127.787 115.743 128.69 114.512C129.6 113.275 131.016 112.492 132.939 112.165C133.873 112.004 135.268 111.8 137.124 111.552L137.448 114.02C136.644 114.113 135.219 114.311 133.171 114.614C132.392 114.737 131.811 114.923 131.427 115.17C131.044 115.418 130.756 115.77 130.564 116.228C130.379 116.686 130.264 117.295 130.221 118.056H130.36C130.688 117.549 131.121 117.159 131.659 116.887C132.197 116.615 132.776 116.479 133.394 116.479C134.674 116.479 135.67 116.871 136.381 117.657C137.093 118.436 137.448 119.555 137.448 121.015C137.448 122.697 136.997 124.006 136.094 124.939C135.197 125.867 133.957 126.331 132.374 126.331C130.79 126.331 129.553 125.765 128.663 124.633C127.778 123.495 127.336 121.927 127.336 119.93ZM132.541 124.04C133.883 124.04 134.554 123.115 134.554 121.266C134.554 119.466 133.948 118.566 132.735 118.566C132.401 118.566 132.067 118.643 131.733 118.798C131.406 118.952 131.103 119.157 130.824 119.41C130.552 119.658 130.351 119.908 130.221 120.162C130.221 121.417 130.422 122.379 130.824 123.047C131.226 123.709 131.798 124.04 132.541 124.04ZM142.041 120.941C142.041 121.968 142.208 122.744 142.542 123.27C142.882 123.795 143.432 124.058 144.193 124.058C144.947 124.058 145.489 123.798 145.816 123.279C146.15 122.753 146.317 121.974 146.317 120.941C146.317 119.914 146.15 119.144 145.816 118.631C145.482 118.118 144.935 117.861 144.174 117.861C143.42 117.861 142.876 118.118 142.542 118.631C142.208 119.138 142.041 119.908 142.041 120.941ZM149.212 120.941C149.212 122.629 148.767 123.95 147.876 124.902C146.985 125.855 145.745 126.331 144.156 126.331C143.16 126.331 142.282 126.115 141.521 125.682C140.76 125.243 140.176 124.615 139.768 123.798C139.359 122.982 139.155 122.029 139.155 120.941C139.155 119.246 139.598 117.929 140.482 116.989C141.366 116.049 142.61 115.579 144.211 115.579C145.207 115.579 146.085 115.795 146.846 116.228C147.607 116.661 148.191 117.283 148.6 118.093C149.008 118.903 149.212 119.852 149.212 120.941ZM160.131 115.773V117.898H156.736V126.146H153.906V117.898H150.501V115.773H160.131ZM168.657 126.146L168.11 124.735H168.036C167.559 125.335 167.068 125.753 166.561 125.988C166.06 126.217 165.404 126.331 164.594 126.331C163.598 126.331 162.813 126.047 162.237 125.478C161.668 124.909 161.384 124.098 161.384 123.047C161.384 121.946 161.767 121.136 162.534 120.616C163.307 120.09 164.47 119.8 166.022 119.744L167.822 119.688V119.234C167.822 118.182 167.284 117.657 166.208 117.657C165.379 117.657 164.405 117.907 163.286 118.408L162.349 116.497C163.542 115.872 164.866 115.56 166.319 115.56C167.711 115.56 168.778 115.863 169.52 116.469C170.262 117.075 170.633 117.997 170.633 119.234V126.146H168.657ZM167.822 121.34L166.728 121.377C165.905 121.402 165.293 121.55 164.891 121.822C164.489 122.094 164.288 122.509 164.288 123.065C164.288 123.863 164.745 124.262 165.661 124.262C166.316 124.262 166.839 124.074 167.229 123.696C167.624 123.319 167.822 122.818 167.822 122.193V121.34ZM176.385 115.773V119.763H180.337V115.773H183.167V126.146H180.337V121.869H176.385V126.146H173.556V115.773H176.385ZM188.39 120.941C188.39 121.968 188.557 122.744 188.891 123.27C189.231 123.795 189.782 124.058 190.543 124.058C191.297 124.058 191.838 123.798 192.166 123.279C192.5 122.753 192.667 121.974 192.667 120.941C192.667 119.914 192.5 119.144 192.166 118.631C191.832 118.118 191.285 117.861 190.524 117.861C189.769 117.861 189.225 118.118 188.891 118.631C188.557 119.138 188.39 119.908 188.39 120.941ZM195.562 120.941C195.562 122.629 195.116 123.95 194.226 124.902C193.335 125.855 192.095 126.331 190.505 126.331C189.51 126.331 188.631 126.115 187.871 125.682C187.11 125.243 186.525 124.615 186.117 123.798C185.709 122.982 185.505 122.029 185.505 120.941C185.505 119.246 185.947 117.929 186.832 116.989C187.716 116.049 188.959 115.579 190.561 115.579C191.557 115.579 192.435 115.795 193.196 116.228C193.957 116.661 194.541 117.283 194.949 118.093C195.357 118.903 195.562 119.852 195.562 120.941Z" fill="black"/>
<rect x="30" y="80" width="260" height="1" fill="#E5E5E5"/>
<path d="M237.6 103H237.5L224 104.4V129.1L237.5 137.1L250.9 129.1V104.4L237.6 103ZM249 115.1L237.5 108.3V108.2H237.4L237.3 108.1V108.2L225.9 115.1V106.1L237.4 104.9L249 106.1V115.1ZM237.4 109.8L248.9 116.5L244.4 119.1L237.3 114.9V116.3L243.2 119.8L242.3 120.3L237.3 117.3V118.7L241.1 121L240.3 121.5L237.3 119.7V121.1L239.2 122.2L237.4 123.3L226 116.6L237.4 109.8ZM225.9 118.1L237.3 124.9V125.9L229.4 121.2V122.6L237.4 127.4V128.5L229.4 123.8V125.2L237.4 130L245.5 125.1V119.9L248.9 117.9V127.9L237.4 134.8L225.9 128V118.1Z" fill="#63D1BB"/>
<path d="M111 40.5849C111 38.2076 110.698 35.8302 110.698 33.5519C110.698 32.7594 110.597 32.066 110.497 31.2736C110.396 30.9764 110.396 30.5802 110.295 30.184C109.993 29.9858 110.094 29.5896 109.792 29.3915C109.39 29.1934 108.584 29.2925 108.081 29.1934C107.377 29.1934 106.773 29.0943 106.169 28.9953C104.256 28.8962 102.143 28.8962 100.13 28.8962C98.1167 28.8962 96.1037 28.7972 94.3926 28.5H92.1783C92.0776 28.5 92.0776 28.5991 91.977 28.5991C91.3731 28.5991 90.8698 28.7972 90.3666 28.8962C90.1653 28.9953 89.964 29.0943 89.662 29.1934C89.5614 29.3915 89.1588 29.2925 89.0581 29.5896C88.8568 29.7877 89.2594 30.0849 89.0581 30.184V31.0755C89.2594 31.1745 89.0581 31.6698 89.1588 31.8679V32.8585C89.1588 34.1462 89.2594 35.2358 89.2594 36.5236C89.7627 39.2972 89.662 42.9623 89.3601 45.8349C89.5614 46.4292 89.7627 46.9245 89.8633 47.5189C90.1653 48.0142 90.1653 48.6085 90.5679 49.0047C91.0711 49.2028 91.7757 49.2028 92.4802 49.2028C92.8828 49.3019 93.1848 49.5 93.5874 49.5C96.4056 49.3019 99.1232 49.3019 102.042 49.3019C104.76 49.5 107.88 49.5 110.396 49.1038C110.597 49.0047 110.497 48.6085 110.597 48.3113C110.497 47.9151 110.799 47.9151 110.799 47.5189C111 45.4387 111 43.0613 111 40.5849ZM97.9154 34.4434C98.7206 34.2453 99.4252 34.1462 100.331 34.1462C101.036 34.2453 101.639 34.4434 102.243 34.6415C102.344 34.8396 102.042 35.1368 102.445 35.3349C102.545 35.3349 102.545 35.3349 102.646 35.434C103.049 35.434 103.451 35.6321 103.753 35.8302C104.256 35.9292 104.256 36.3255 104.86 36.2264C104.76 36.4245 104.76 36.7217 104.76 37.0189C105.062 38.2075 105.263 39.7925 105.062 41.2783C104.86 41.4764 104.86 41.6745 104.76 41.9717C104.458 42.2689 104.256 42.7642 103.954 43.0613C103.854 43.2594 103.652 43.4575 103.451 43.5566C103.351 43.7547 103.25 44.0519 102.948 44.0519C102.646 44.25 102.344 44.0519 102.143 43.9528C101.74 44.1509 101.237 44.25 100.935 44.5472C100.13 44.4481 99.3245 44.3491 98.5193 44.25C98.318 44.1509 98.016 43.9528 97.7141 43.9528C97.5128 43.7547 97.2108 43.5566 96.9089 43.4575C96.8082 43.3585 96.6069 43.3585 96.4056 43.2594C96.2043 43.2594 96.2043 43.0613 95.9024 43.0613C95.8017 42.6651 95.4998 42.467 95.3991 41.9717C95.1978 41.6745 95.0972 41.1792 94.8959 40.783C94.8959 39.3962 94.9965 38.1085 95.2985 37.0189C95.6004 36.4245 96.1037 35.9292 96.4056 35.3349C96.6069 35.3349 96.8082 35.2358 96.8082 35.0377C97.1102 35.1368 97.2108 34.9387 97.5128 34.9387C97.7141 34.9387 97.7141 34.6415 97.9154 34.4434ZM96.2043 31.7689C96.1037 31.4717 96.1037 31.0755 96.1037 30.6792C96.1037 30.3821 96.4056 30.3821 96.4056 30.184C96.4056 30.0849 96.305 30.0849 96.2043 30.0849C96.305 29.9859 96.9089 29.9859 97.0095 30.0849C97.1102 30.5802 96.6069 30.5802 96.5063 30.7783C96.5063 30.9764 96.8082 30.7783 97.0095 30.8774C97.0095 31.7689 96.9089 32.3632 97.0095 33.0566H96.5063C96.5063 33.2547 96.7076 33.2547 97.0095 33.2547C96.9089 33.5519 97.1102 33.6509 97.1102 33.8491C96.9089 34.0472 96.4056 33.8491 96.003 33.9481C96.003 33.3538 96.305 32.5613 96.2043 31.7689ZM95.4998 30.184C95.6004 30.184 95.6004 30.184 95.7011 30.283C95.9024 30.5802 95.7011 30.9764 95.6004 31.1745C95.3991 30.9764 95.6004 30.4811 95.4998 30.184ZM95.7011 31.967C95.6004 31.8679 95.4998 31.7689 95.4998 31.4717C95.7011 31.5708 95.7011 31.7689 95.7011 31.967ZM95.7011 33.3538C95.6004 33.4528 95.6004 33.3538 95.6004 33.1557C95.7011 33.0566 95.7011 33.2547 95.7011 33.3538ZM95.4998 33.5519C95.7011 33.5519 95.6004 33.75 95.7011 33.75C95.7011 33.9481 95.3991 33.9481 95.2985 33.8491C95.3991 33.75 95.4998 33.6509 95.4998 33.5519ZM93.1848 32.3632C93.1848 32.2642 93.1848 32.1651 93.0841 32.1651C92.9835 31.4717 93.1848 30.7783 93.0841 30.184C93.3861 29.9858 93.8894 30.184 94.1913 30.0849V31.1745C94.0907 31.2736 93.99 31.2736 93.7887 31.2736C93.6881 31.5708 94.0907 31.3726 94.1913 31.5708C94.1913 32.4623 94.0907 33.3538 94.3926 33.9481C93.7887 33.8491 93.4867 34.0472 92.9835 34.0472C93.0841 33.4528 92.9835 32.6604 93.4867 32.4623C93.4867 32.3632 93.1848 32.4623 93.1848 32.3632ZM92.6815 32.3632C92.4802 32.3632 92.4802 31.8679 92.5809 31.7689C92.8828 31.7689 92.7822 32.2642 92.6815 32.3632ZM92.4802 33.3538C92.5809 33.0566 92.4802 33.0566 92.5809 32.6604C92.7822 32.6604 92.7822 33.4528 92.4802 33.3538ZM92.6815 31.2736C92.3796 31.3726 92.3796 30.9764 92.4802 30.8774C92.7822 30.8774 92.8828 31.1745 92.6815 31.2736ZM92.6815 30.184C92.6815 30.3821 92.5809 30.3821 92.5809 30.4811C92.3796 30.4811 92.4802 30.283 92.3796 30.283C92.4802 30.184 92.5809 30.184 92.6815 30.184ZM92.4802 33.8491C92.5809 33.8491 92.5809 34.1462 92.3796 34.0472C92.4802 34.0472 92.4802 33.9481 92.4802 33.8491ZM91.7757 30.184C91.7757 30.4811 91.3731 30.4811 91.3731 30.184H91.7757ZM90.7692 30.283C90.7692 30.4811 90.4672 30.4811 90.3666 30.6792C90.1653 30.4811 90.4672 30.184 90.7692 30.283ZM90.3666 30.9764C90.5679 30.7783 90.8698 30.5802 91.0711 30.3821C91.0711 30.283 91.1718 30.283 91.1718 30.184H91.3731C91.4737 30.5802 91.0711 30.4811 91.0711 30.6792C91.0711 30.7783 90.9705 30.7783 90.9705 30.8774C90.9705 31.1745 91.0711 31.4717 91.0711 31.8679C90.7692 31.8679 90.7692 32.1651 90.4672 32.066C90.4672 31.6698 90.2659 31.4717 90.3666 30.9764ZM90.4672 34.2453V32.6604C90.6685 32.4623 90.8698 32.2642 91.0711 32.1651C91.3731 32.6604 91.2724 33.5519 91.5744 34.0472C91.1718 34.1462 90.7692 34.1462 90.4672 34.2453ZM108.786 45.2406C108.685 46.2311 108.584 47.2217 108.383 48.0142C105.464 48.1132 102.344 48.0141 99.4252 48.2123C99.2239 48.2123 99.1232 48.2123 99.2238 48.0142C98.9219 48.0142 98.9219 48.2123 98.7206 48.2123C98.9219 47.9151 99.1232 47.3207 98.9219 46.9245C98.1167 46.9245 98.1167 47.717 97.8147 48.2123C97.1102 48.1132 96.7076 48.3113 96.003 48.3113C96.2043 47.6179 96.7076 47.3208 96.9089 46.6274C96.5063 46.1321 95.9024 46.7264 95.7011 47.1226C95.4998 47.6179 95.0972 47.9151 94.8959 48.4104H93.8894C94.0907 47.9151 94.3926 47.5189 94.6946 47.0236C94.8959 46.5283 95.2985 46.3302 95.3991 45.6368C95.1978 45.3396 94.9965 45.6368 94.6946 45.6368C94.5939 45.8349 94.3926 45.934 94.292 46.1321C94.0907 46.5283 93.7887 46.8255 93.5874 47.2217C93.3861 47.4198 93.2854 47.2217 93.0841 47.4198C92.6815 47.717 92.4802 48.1132 92.0776 48.4104C91.8763 48.3113 92.0776 48.0142 92.2789 48.0142C92.2789 47.816 92.1783 47.5189 92.3796 47.4198C92.4802 47.0236 92.5809 46.8255 92.7822 46.5283C92.8828 45.8349 93.2854 45.3396 93.4867 44.6462C92.8828 44.7453 92.7822 45.2406 92.4802 45.6368C92.2789 46.033 91.977 46.4292 91.7757 46.9245C91.5744 46.8255 91.7757 46.3302 91.675 46.1321C91.7757 45.5377 91.977 45.0424 92.0776 44.4481C92.1783 44.25 92.2789 43.9528 92.2789 43.6557C92.4802 43.4575 92.2789 43.0613 92.1783 42.8632C91.977 42.8632 91.7757 42.9623 91.675 43.1604C91.4737 43.1604 91.4737 43.6557 91.3731 43.4575C91.3731 40.8821 90.8698 38.7028 90.8698 36.1274C90.8698 35.8302 90.6685 35.7311 90.6685 35.434C92.2789 35.434 93.7887 35.533 95.4998 35.6321C95.3991 35.7311 95.2985 35.9292 95.1978 36.0283C95.0972 36.1274 94.9965 36.2264 94.7952 36.3255C94.1913 38.0094 93.7887 40.2877 94.1913 42.467C94.3926 43.0613 94.7952 43.4575 95.1978 43.8538C96.1037 44.3491 96.8082 44.9434 97.7141 45.5377C99.4252 45.934 101.539 45.934 103.25 45.5377C103.451 45.4387 103.753 45.3396 103.954 45.1415C105.364 43.9528 106.773 42.6651 106.974 40.2877V38.9009C106.773 37.316 106.269 36.0283 105.263 35.3349C105.565 35.1368 106.37 35.3349 106.974 35.434C107.175 35.434 107.377 35.434 107.679 35.434C108.081 35.434 108.584 35.3349 109.088 35.434C109.188 35.6321 109.188 35.9292 109.289 36.2264C109.188 37.9104 109.088 39.4953 109.088 41.2783C109.188 41.7736 109.188 42.2689 109.289 42.6651C109.088 43.4575 108.987 44.3491 108.786 45.2406ZM109.188 34.1462C108.584 34.0472 107.98 33.8491 107.276 33.75C107.377 33.4528 108.081 33.75 108.282 33.5519C108.685 33.3538 108.584 32.6604 108.584 32.066C108.584 31.7689 108.685 31.4717 108.685 30.9764C108.282 29.9858 106.873 30.5802 105.766 30.4811C105.565 31.1745 105.263 32.2642 105.464 33.1557C105.666 33.6509 106.471 33.4528 106.974 33.6509C106.873 33.9481 106.269 33.75 105.967 33.75C105.666 33.6509 105.263 33.6509 104.961 33.5519C102.646 33.6509 100.633 33.5519 98.4186 33.75C98.5193 32.5613 98.5193 31.2736 98.318 30.184H101.438C101.136 30.5802 100.532 30.6792 100.13 30.9764C99.7271 31.1745 99.2238 31.4717 99.0225 31.8679C99.2238 31.967 99.5258 31.6698 99.8278 31.4717C100.23 31.3726 100.331 31.0755 100.633 30.9764C101.036 30.5802 101.74 30.3821 102.344 30.0849C102.747 30.0849 103.049 30.0849 103.351 30.184C104.659 30.184 105.867 30.283 107.175 30.283C107.779 30.3821 108.685 30.3821 109.188 30.5802C109.289 30.8774 109.39 31.1745 109.49 31.4717C109.39 32.4623 109.188 33.2547 109.188 34.1462ZM103.25 30.4811C103.351 30.3821 103.25 30.3821 103.25 30.4811V30.4811ZM103.25 30.4811C102.747 30.6792 102.243 30.7783 101.841 31.1745C102.344 30.9764 102.948 30.8774 103.25 30.4811ZM104.357 31.0755C104.458 30.9764 104.357 30.9764 104.357 31.0755V31.0755ZM102.545 31.967C103.25 31.7689 103.753 31.3726 104.256 31.0755C103.854 31.0755 103.652 31.3726 103.25 31.4717C103.149 31.6698 102.747 31.6698 102.545 31.967ZM101.841 31.1745C101.74 31.1745 101.941 31.2736 101.841 31.1745V31.1745ZM101.237 31.7689C101.338 31.6698 101.237 31.6698 101.237 31.7689V31.7689ZM101.136 31.8679C101.237 31.8679 101.237 31.7689 101.136 31.8679C101.136 31.7689 101.136 31.7689 101.136 31.8679ZM101.036 31.8679C101.136 31.8679 101.136 31.8679 101.036 31.8679C101.036 31.7689 101.036 31.8679 101.036 31.8679ZM100.23 32.4623C100.532 32.3632 100.834 32.1651 101.036 31.8679C100.734 32.066 100.432 32.2642 100.23 32.4623ZM102.545 33.4528C103.049 33.4528 103.25 33.0566 103.753 32.9575C104.055 32.6604 104.558 32.5613 104.76 32.1651C104.156 32.1651 103.954 32.5613 103.552 32.6604C103.25 33.0566 102.747 33.1557 102.545 33.4528ZM100.23 32.4623C99.9284 32.4623 100.23 32.7594 100.23 32.4623V32.4623ZM99.6265 32.8585C99.7271 32.8585 99.8278 32.8585 99.6265 32.8585C99.7271 32.7594 99.6265 32.8585 99.6265 32.8585ZM102.545 33.4528C102.344 33.5519 102.545 33.5519 102.545 33.4528V33.4528ZM101.338 35.2359C101.136 35.0377 100.633 35.0377 100.331 34.8396C99.6265 34.8396 99.1232 34.9387 98.6199 35.0377C98.318 35.2358 98.016 35.3349 97.7141 35.533C97.4121 35.7311 97.3115 35.9292 96.9089 36.0283C96.7076 36.2264 96.5063 36.5236 96.2043 36.6226C96.2043 36.8208 96.003 36.9198 95.9024 37.0189C95.8017 37.1179 95.8017 37.316 95.7011 37.4151C95.7011 37.5141 95.7011 37.7123 95.6004 37.7123C95.7011 39.1981 95.9024 40.5849 96.305 41.8726C96.6069 42.467 97.3115 42.6651 97.7141 43.1604C98.318 43.4575 99.0225 43.5566 99.8278 43.6557C100.13 43.5566 100.432 43.5566 100.734 43.5566C101.941 43.3585 102.847 42.8632 103.552 42.1698C103.652 41.8726 103.854 41.6745 104.055 41.4764C103.753 40.783 104.357 40.3868 104.558 39.8915C104.558 38.6038 104.357 37.4151 103.954 36.5236C103.652 35.9292 103.049 35.7311 102.545 35.434C102.445 35.434 102.344 35.434 102.344 35.3349C102.143 35.2358 101.639 35.1368 101.338 35.2359ZM97.9154 39.5943C97.8147 39.4953 97.8147 39.3962 97.7141 39.1981C98.016 39.0991 97.9154 39.3962 97.9154 39.5943ZM98.016 39.8915C98.016 39.7925 98.1167 39.8915 98.016 39.8915C98.016 40.0896 98.016 39.9906 98.016 39.8915ZM98.4186 37.8113C98.4186 37.7123 98.5193 37.8113 98.4186 37.8113C98.5193 37.9104 98.4186 37.9104 98.4186 37.8113ZM100.13 35.7311C99.9284 36.0283 100.13 36.3255 100.23 36.5236C99.9284 36.5236 99.6265 35.7311 100.13 35.7311ZM100.532 39.5943C100.432 39.5943 100.532 39.5943 100.532 39.5943C100.633 39.5943 100.532 39.6934 100.532 39.5943ZM101.237 42.467C101.237 42.3679 101.338 42.467 101.438 42.467C101.438 42.566 101.237 42.566 101.237 42.467ZM103.451 39.9906C103.25 39.8915 103.351 40.1887 103.049 40.1887C103.149 39.9906 103.149 39.8915 103.25 39.6934C103.451 39.6934 103.552 39.7924 103.451 39.9906ZM102.344 36.2264C102.545 36.3255 102.747 36.4245 102.948 36.6226C103.049 36.8208 103.149 37.0189 103.351 37.1179C103.451 37.9104 103.552 38.6038 103.552 39.4953C103.25 39.5943 103.149 39.7925 102.847 39.8915C102.042 39.8915 101.438 39.6934 100.935 39.3962C100.734 39.0991 100.532 38.9009 100.432 38.6038V37.5142C100.633 37.316 100.734 37.1179 100.935 36.9198C101.136 36.8208 101.438 36.7217 101.438 36.3255C101.438 36.2264 101.338 36.2264 101.338 36.1274C101.539 36.1274 101.539 36.3255 101.74 36.3255C101.941 36.3255 102.042 36.1274 102.344 36.2264Z" fill="#231F20"/>
<path d="M163.704 30.2548C164.702 30.2548 165.701 30.2548 166.401 29.9531C166.8 29.1486 167 28.0423 167 26.936C166.8 26.936 166.9 26.6343 166.8 26.5337C166.8 26.3326 166.501 26.3326 166.501 26.1314C166.201 25.9303 166.001 25.7291 165.801 25.528C165.102 25.3269 164.403 25.2263 163.604 25.0251C162.804 25.0251 161.706 24.9246 161.006 25.1257C158.409 25.1257 157.011 26.232 155.712 27.5394C155.712 27.64 155.712 27.7406 155.612 27.7406C155.013 29.3497 155.512 31.3611 155.412 33.3725C155.512 33.7748 155.512 34.3783 155.612 34.7805C154.613 35.0823 153.414 35.1828 152.216 35.2834C151.916 35.5851 152.016 36.3897 152.016 36.9931C152.116 37.5965 152.316 38.0994 152.416 38.6022C152.615 38.8034 153.015 39.0045 153.215 39.1051C153.315 39.1051 153.315 39.2057 153.315 39.2057C153.814 39.5074 154.813 39.2057 155.612 39.3062C155.512 41.3177 155.912 43.2285 155.612 45.0388C155.612 45.3405 155.912 45.4411 155.812 45.8434C155.812 46.8491 155.712 47.8548 156.012 48.5588C155.712 49.0616 155.512 49.5645 155.612 50.3691C155.712 50.3691 155.712 50.5702 155.712 50.6708C155.612 51.1736 156.311 50.8719 156.212 51.3748C156.411 51.8776 155.812 51.5759 155.812 51.8776V52.7828C156.311 53.0845 157.31 52.9839 158.109 52.9839C159.009 52.5816 160.307 52.4811 160.907 51.7771C161.406 51.9782 161.806 51.7771 162.105 51.5759C162.105 51.2742 162.405 51.2742 162.305 50.8719C162.305 50.5702 162.105 50.3691 162.205 49.9668V47.0502C162.005 44.7371 162.205 42.1222 161.905 39.8091C162.804 39.7085 163.803 39.7085 164.503 39.4068C164.902 38.904 164.902 38.2 165.002 37.496C165.202 37.2948 165.202 36.8925 165.202 36.4902C165.402 36.2891 165.302 35.7863 165.302 35.384C165.202 34.7805 165.102 34.0765 164.503 33.976C163.604 33.7748 162.505 34.5794 161.506 34.2777C161.506 33.1714 161.206 31.9645 161.506 30.8583C162.305 30.6571 163.004 30.456 163.704 30.2548ZM159.908 35.0823C160.007 35.384 160.207 35.5851 160.307 35.7863C160.407 35.7863 160.507 35.7863 160.507 35.8868C161.706 35.9874 162.705 35.7863 163.604 35.5851C163.604 36.5908 163.304 37.2948 163.104 38.0994C162.405 38.0994 161.606 38.4011 161.106 38.3005C160.807 38.5017 160.707 38.8034 160.507 39.0045C160.507 39.4068 160.607 39.5074 160.507 39.8091C160.307 39.9097 160.407 40.4125 160.307 40.6137V42.1222C160.407 42.4239 160.207 42.4239 160.207 42.6251V46.1451C160.107 46.4468 160.307 46.4468 160.307 46.6479V49.6651C160.407 49.9668 160.207 50.4696 160.407 50.5702C160.307 50.9725 160.007 50.5702 159.608 50.6708C159.108 50.7713 158.709 51.0731 158.109 51.0731C158.209 50.6708 158.409 50.4696 158.409 49.9668C158.409 49.5645 158.01 49.6651 157.91 49.4639C158.109 48.8605 158.509 48.3576 158.609 47.6536C158.809 47.1508 159.308 46.3462 158.909 45.8434C158.409 45.7428 158.409 46.1451 158.109 46.2456C158.109 46.3462 158.109 46.4468 158.01 46.4468C158.01 46.5474 158.01 46.6479 157.91 46.6479C157.91 46.7485 157.71 46.7485 157.91 46.6479C157.91 46.5474 157.91 46.4468 158.01 46.4468C158.01 46.3462 158.01 46.2456 158.109 46.2456V45.9439C158.509 45.3405 158.809 44.7371 158.909 43.9325C159.108 43.6308 159.208 43.2285 159.308 42.9268C159.508 42.6251 159.608 42.0217 159.408 41.7199C158.909 41.7199 158.609 42.0217 158.509 42.4239C158.209 42.2228 158.709 42.0217 158.609 41.7199C158.709 41.5188 158.809 41.1165 158.909 40.9154C159.108 40.5131 159.508 39.6079 158.909 39.3062C158.509 39.3062 158.309 39.5074 158.209 39.8091C158.01 40.0102 157.81 40.2114 157.71 40.5131C157.31 40.4125 157.61 39.8091 157.51 39.4068C157.41 38.904 157.61 38.5017 157.51 38.2C156.911 37.3954 155.512 38.0994 154.314 37.8982C154.214 37.5965 154.114 36.8925 154.214 36.6914C155.213 36.5908 156.711 36.8925 157.41 36.4902C157.41 36.3897 157.41 36.2891 157.51 36.2891C157.61 35.5851 157.21 35.2834 157.011 34.8811C157.21 34.0765 157.011 32.8697 157.111 31.864C157.31 31.7634 157.41 31.4617 157.61 31.2606C157.71 30.2548 158.309 29.752 158.309 28.7463C158.01 28.7463 157.71 28.6457 157.71 28.9474C157.41 28.8468 157.31 29.4503 157.21 29.1486C157.111 28.6457 157.41 28.5451 157.51 28.1428C158.109 27.7406 158.709 27.3383 159.408 26.936C161.106 26.7349 164.003 26.5337 165.502 27.1371C165.601 27.7406 165.202 28.0423 165.302 28.6457H163.803C162.705 28.8468 161.806 29.3497 160.807 29.6514C160.607 29.752 160.507 29.9531 160.307 30.0537C160.307 30.456 160.107 30.6571 160.007 31.0594C159.708 32.4674 159.908 33.6743 159.908 35.0823Z" fill="#231F20"/>
<path d="M230.957 33.2424C230.763 32.8384 230.083 32.9394 229.597 32.8384H228.528C228.625 32.4343 228.819 32.2323 229.014 31.8283C229.111 31.4242 229.305 31.1212 229.208 30.5152C229.305 30.3131 229.402 30.1111 229.5 29.9091C229.597 29.8081 229.694 29.404 229.597 29.202C229.5 29 229.305 29 229.014 29C228.917 29 228.819 29.101 228.819 29.101C228.431 29.505 228.042 30.1111 227.556 30.5152H227.459C227.362 30.5152 227.459 30.5152 227.362 30.6162C227.265 30.7172 227.07 30.8182 226.973 30.8182C226.682 31.0202 226.487 31.2222 226.099 31.3232C225.613 31.1212 224.933 31.0202 224.252 30.9192C223.086 31.0202 222.018 31.1212 221.337 31.6263C220.463 31.9293 219.88 32.6364 219.297 33.2424C219.297 33.5455 219.005 33.6465 218.908 33.9495C218.908 33.9495 218.908 34.0505 218.811 34.0505C218.811 34.2525 218.714 34.3535 218.714 34.5556C218.714 34.6566 218.908 34.9596 218.714 35.0606C217.937 34.9596 217.256 34.4545 216.673 34.0505C215.993 33.6465 215.216 33.4444 214.633 32.9394C213.953 32.6364 213.37 32.1313 212.884 31.6263C212.689 31.3232 212.398 31.1212 212.204 30.7172C211.815 30.5152 212.009 29.8081 211.523 29.8081C211.232 29.8081 211.232 30.0101 211.135 30.2121C211.038 30.4141 210.746 30.4141 210.746 30.7172C210.746 30.7172 210.746 30.8182 210.649 30.8182C210.455 31.9293 210.163 32.8384 210.163 34.1515C210.26 34.5556 210.455 34.8586 210.746 35.1616C210.357 35.2626 210.066 35.3636 209.871 35.6667C209.774 36.7778 210.26 37.2828 210.552 37.9899C210.649 38.3939 210.94 38.697 211.135 39C211.135 39.202 211.329 39.303 211.426 39.404C211.426 39.5051 211.523 39.505 211.523 39.6061C211.523 39.7071 211.815 39.8081 211.621 39.8081C211.232 39.9091 210.649 39.9091 210.357 40.2121C210.26 40.5152 210.26 41.0202 210.357 41.3232C210.357 41.5253 210.649 41.6263 210.649 41.8283C211.135 42.2323 211.718 42.5354 212.204 42.9394C212.787 43.1414 213.37 43.2424 214.05 43.3434C213.953 43.6465 213.758 43.9495 213.467 44.0505C212.689 44.4545 211.718 44.5556 210.843 44.7576C210.26 44.7576 209.871 44.9596 209.288 44.9596C208.997 45.0606 208.414 45.0606 208.22 45.1616C208.122 45.2626 208.122 45.2626 208.025 45.3636C207.928 45.7677 208.122 46.0707 208.414 46.2727C208.414 46.5758 208.608 46.5758 208.803 46.6768C208.9 46.8788 209.094 46.9798 209.191 47.0808C209.677 47.5859 210.455 47.8889 211.038 48.1919C211.815 48.3939 212.592 48.596 213.467 48.697C214.341 48.798 215.313 48.798 216.187 48.899H217.159C217.645 49 218.325 49 219.005 49C219.103 48.899 219.297 48.899 219.491 48.899C219.977 48.596 220.657 48.4949 221.046 48.1919C221.629 47.9899 222.018 47.5859 222.601 47.2828C223.475 46.4748 224.447 45.9697 225.03 44.8586C225.224 44.6566 225.419 44.4545 225.419 44.1515C225.71 43.9495 225.807 43.6465 226.002 43.4444C226.39 43.0404 226.682 42.5354 226.973 42.0303C227.265 41.5253 227.556 40.9192 227.848 40.4141C227.848 40.0101 228.139 39.9091 228.139 39.505C228.334 39.303 228.334 38.798 228.528 38.596C228.528 38.2929 228.528 38.1919 228.625 37.9899C228.625 36.6768 228.625 35.5657 228.334 34.5556C228.917 34.3535 229.5 34.2525 229.888 33.9495C230.666 34.2525 231.151 33.8485 230.957 33.2424ZM227.653 37.2828C227.459 38.1919 227.07 38.697 226.682 39.303C226.779 39.7071 226.585 39.8081 226.585 40.2121C226.39 40.5152 226.293 40.9192 226.196 41.2222C226.002 41.5253 225.904 41.8283 225.71 42.1313C225.321 42.6364 224.933 43.2424 224.544 43.7475C224.155 44.3535 223.669 44.7576 223.281 45.2626C222.892 45.7677 222.406 46.1717 221.92 46.5758C221.435 46.7778 221.046 46.9798 220.657 47.2828C220.463 47.3838 220.171 47.4848 219.977 47.5859C219.783 47.6869 219.491 47.6869 219.297 47.8889C218.228 47.9899 217.062 48.0909 215.799 47.9899C214.827 47.8889 213.758 47.7879 212.884 47.5859C212.009 47.3838 211.426 46.8788 210.649 46.5758C210.843 46.3737 211.232 46.3737 211.621 46.3737C211.621 46.1717 212.009 46.3737 212.009 46.2727C212.301 46.3737 212.301 46.1717 212.495 46.1717C213.078 45.9697 213.661 45.8687 214.147 45.5657C214.438 45.4646 214.536 45.1616 214.827 44.9596C214.827 44.7576 214.924 44.6566 215.021 44.5556C215.021 44.2525 215.216 44.1515 215.119 43.7475C215.216 43.5455 215.41 43.4444 215.41 43.0404C215.313 42.9394 215.313 42.7374 215.119 42.6364C215.119 42.4343 214.73 42.5354 214.73 42.4343C214.438 42.4343 214.341 42.4343 214.147 42.3333C213.953 42.3333 213.661 42.4343 213.661 42.2323C212.884 42.2323 212.398 41.8283 211.815 41.5253C212.204 41.2222 212.787 41.1212 213.078 40.8182C213.564 40.7172 214.147 40.7172 214.147 40.1111C214.147 39.404 213.37 39.404 212.884 39.303C212.106 38.596 211.718 37.5859 211.135 36.7778C211.329 36.5758 211.718 36.5758 211.815 36.3737C212.301 36.4747 212.301 36.0707 212.495 35.8687C212.495 35.3636 212.204 35.2626 211.912 35.0606C211.621 34.8586 211.426 34.5556 211.232 34.3535C211.232 33.5455 211.232 32.6364 211.329 31.9293C211.426 31.9293 211.426 31.9293 211.426 32.0303C211.621 32.4343 212.009 32.8384 212.204 33.2424C212.689 33.6465 213.078 34.1515 213.758 34.3535C214.244 34.7576 214.827 34.9596 215.313 35.3636C215.896 35.6667 216.479 35.9697 216.965 36.2727C217.645 36.4747 218.034 36.9798 218.908 36.8788C219.103 36.7778 219.297 36.6768 219.491 36.5758C219.783 36.0707 219.394 35.4646 219.588 34.9596C219.88 34.2525 220.366 33.9495 220.852 33.4444C221.143 33.2424 221.435 33.1414 221.629 32.9394C221.92 32.8384 222.309 32.7374 222.601 32.5354C222.989 32.5354 223.281 32.4343 223.572 32.4343H224.836C225.03 32.5354 225.321 32.5354 225.516 32.5354C225.71 32.6364 225.904 32.8384 226.196 32.9394C226.973 33.6465 227.459 34.6566 227.556 35.9697C227.556 36.2727 227.653 36.6768 227.653 37.2828ZM227.945 31.6263C227.848 31.9293 227.751 32.3333 227.362 32.4343C227.362 32.3333 227.265 32.3333 227.265 32.2323C227.265 32.0303 227.459 32.0303 227.556 31.9293C227.653 31.8283 227.751 31.6263 227.945 31.6263C227.945 31.5253 228.042 31.6263 227.945 31.6263ZM222.601 34.6566C222.795 34.7576 222.892 34.9596 223.086 35.0606C223.184 35.2626 223.378 35.3636 223.669 35.4646C223.669 35.2626 223.961 35.4646 224.058 35.2626C224.252 35.2626 224.252 35.0606 224.35 34.9596C224.35 34.4545 224.252 33.9495 223.961 33.6465C223.281 33.1414 222.309 33.6465 222.601 34.6566Z" fill="#231F20"/>
</svg>
